<svg width="106" height="139" viewBox="0 0 106 139" fill="none" xmlns="http://www.w3.org/2000/svg">
<path fill-rule="evenodd" clip-rule="evenodd" d="M36.6588 68.071L41.6607 66.4646L36.7467 84.3861C33.4973 98.676 43.9309 107.209 57.273 107.27C70.1047 107.329 82.132 103.07 91.8199 95.6749C95.4843 92.8784 99.2898 96.6314 96.5645 100.428C85.9194 115.258 71.8538 128.709 60.0406 137.604C58.4424 138.808 56.3331 138.803 54.72 137.589C36.4597 123.875 21.097 106.54 9.52639 86.6711C9.35352 86.3812 9.18066 86.0913 9.0123 85.8014C4.77044 78.2236 6.00349 68.7432 12.0204 62.6303C17.718 56.8418 26.181 55.5449 33.1771 58.7251C29.1139 62.2678 30.1368 70.1568 36.6587 68.0618L36.6588 68.071Z" fill="url(#paint0_radial)"/>
<path fill-rule="evenodd" clip-rule="evenodd" d="M36.7472 68.0673L41.7487 66.4613L38.2136 79.3612C38.0886 75.4651 36.5054 71.7093 33.7385 68.8932C27.7921 62.8508 18.1997 62.807 12.3048 68.7953C7.72731 73.4453 6.61071 80.5612 9.50831 86.4841C9.37186 86.2587 9.23993 86.0333 9.10798 85.8033C4.86653 78.227 6.09947 68.7486 12.1158 62.6369C17.8129 56.8496 26.275 55.553 33.2705 58.7326C29.2076 62.2745 30.2304 70.1619 36.7517 68.0673L36.7472 68.0673Z" fill="url(#paint1_linear)"/>
<path fill-rule="evenodd" clip-rule="evenodd" d="M49.4294 133.51C33.4841 120.517 19.9649 104.668 9.52992 86.7601L9.5163 86.7417C11.831 90.5638 14.5779 94.0988 17.7026 97.2733C31.4758 111.266 50.8203 116.684 68.807 112.922C70.2913 112.613 71.7527 113.312 72.4675 114.677C73.1823 116.043 72.9363 117.656 71.8481 118.72C66.0341 124.404 60.1496 129.441 54.7305 133.516C53.1372 134.715 51.033 134.715 49.4204 133.51L49.4294 133.51Z" fill="url(#paint2_linear)"/>
<path fill-rule="evenodd" clip-rule="evenodd" d="M27.7963 112.353C20.9787 104.424 14.8715 95.857 9.56092 86.7581L9.5473 86.7397C11.861 90.5551 14.6067 94.0839 17.73 97.2528C31.497 111.221 50.833 116.629 68.8118 112.874C55.7311 117.933 41.0305 117.834 27.7918 112.353L27.7963 112.353Z" fill="url(#paint3_linear)"/>
<path fill-rule="evenodd" clip-rule="evenodd" d="M8.70042 85.1855C3.57165 75.7791 1.2027 65.3923 1.43752 55.1572C2.10532 31.593 24.6027 15.3989 46.2681 23.2277C44.9962 24.9544 44.1121 26.9335 43.7797 29.0474C42.6697 36.0316 47.914 41.8372 55.4862 42.0201C58.8472 42.1013 62.103 41.0582 64.7846 39.2674C66.1393 41.74 67.2036 44.3738 67.9512 47.1168C67.4108 47.1364 66.8333 47.2347 66.232 47.4211L35.6108 56.81C34.7157 57.0828 33.944 57.5316 33.2923 58.0861C26.3832 54.7128 17.9317 55.8688 12.1403 61.6509C5.88752 67.8985 4.71563 77.5781 8.70049 85.1808L8.70042 85.1855Z" fill="url(#paint4_radial)"/>
<path fill-rule="evenodd" clip-rule="evenodd" d="M9.1112 85.785C7.10439 82.3377 5.48997 78.75 4.2546 75.0721C1.39324 66.1585 3.66423 56.41 10.1451 49.8251C19.6799 40.1373 35.2099 40.2083 44.828 49.9836C45.8942 51.0671 46.8614 52.2467 47.716 53.5037L35.5772 57.4005C34.684 57.6856 33.9181 58.1411 33.2745 58.6982C26.2775 55.5173 17.818 56.8144 12.1151 62.6042C5.95804 68.8601 4.96445 78.3895 9.10666 85.7804L9.1112 85.785Z" fill="url(#paint5_linear)"/>
<path fill-rule="evenodd" clip-rule="evenodd" d="M1.34658 58.7692C1.316 57.9491 1.30348 57.1291 1.3045 56.3092C1.53102 33.2008 23.7867 16.8995 45.6598 24.1593C44.1027 26.305 43.1477 28.875 43.1592 31.5639C32.1173 27.0609 19.0775 29.3006 10.1967 38.3113C4.61021 43.9795 1.66688 51.3133 1.35107 58.7646L1.34658 58.7692ZM56.7194 42.3447C59.562 42.0921 62.2614 41.0784 64.5298 39.5313C65.9347 41.9289 67.0515 44.49 67.8528 47.1642C67.3113 47.1938 66.734 47.3011 66.1345 47.4953L60.4639 49.3107C59.5282 46.8741 58.2814 44.5323 56.7194 42.3447Z" fill="url(#paint6_linear)"/>
<path fill-rule="evenodd" clip-rule="evenodd" d="M1.18972 56.3292C1.35125 25.1528 26.2039 0.146894 56.9001 0.326393C83.2512 0.480484 104.684 22.3102 104.774 49.0867C104.85 71.4019 90.7023 89.9302 70.6886 95.2656C63.2247 97.2552 60.7225 93.2705 62.5118 86.7683L63.4444 83.3774L68.1698 66.2031L71.7573 53.1528C72.797 49.3678 70.8335 47.0661 67.7943 47.2273C66.9948 44.5469 65.8751 41.9793 64.4758 39.5754C67.8061 37.3092 70.202 33.8993 70.7492 30.0748C71.7378 23.2007 66.3711 17.5883 58.7693 17.5439C53.4666 17.5129 48.4801 20.1962 45.6073 24.154C23.7217 16.8524 1.43243 33.1668 1.19424 56.3293L1.18972 56.3292Z" fill="url(#paint7_linear)"/>
<path fill-rule="evenodd" clip-rule="evenodd" d="M30.7225 6.7721C45.7473 -0.790296 66.3552 5.0605 75.8984 15.9344C92.8782 35.2805 92.0461 65.3857 75.2329 84.5786C71.7444 88.5617 67.6924 91.8031 63.2619 94.1934C61.8999 92.64 61.7078 90.0037 62.6062 86.7251L63.5357 83.3319L68.2456 66.1455L71.8214 53.086C72.8576 49.2984 70.8915 46.9985 67.8518 47.1638C67.0497 44.4835 65.9272 41.9165 64.5254 39.5136C67.8541 37.2423 70.2473 33.8281 70.791 30.0015C71.7732 23.1238 66.4 17.5166 58.7966 17.4821C53.4927 17.458 48.5077 20.1488 45.6381 24.1118C23.741 16.8364 1.46262 33.1856 1.24655 56.3563C1.33855 34.7919 13.239 16.169 30.7225 6.7721Z" fill="url(#paint8_linear)"/>
<path fill-rule="evenodd" clip-rule="evenodd" d="M69.6333 47.37C69.1 47.1889 68.5039 47.1129 67.8541 47.1512C67.0528 44.4776 65.9315 41.9171 64.5311 39.5201L65.9673 38.6612C66.6993 39.9102 67.3593 41.2138 67.9473 42.5629C68.6037 44.068 69.2473 45.7471 69.6333 47.37ZM46.8071 22.7601C46.3983 23.2025 46.0121 23.6678 45.6621 24.1517C23.7854 16.8936 1.52624 33.2002 1.30877 56.3123C1.3334 50.4414 2.23914 44.7944 3.89559 39.4897C6.47044 34.6883 10.0819 30.5924 14.3881 27.4614C20.4311 23.0652 27.8363 20.5758 35.6228 20.7214C39.6583 20.7948 43.024 21.5292 46.8071 22.7601Z" fill="url(#paint9_linear)"/>
<defs>
<radialGradient id="paint0_radial" cx="0" cy="0" r="1" gradientUnits="userSpaceOnUse" gradientTransform="translate(76.0296 133.743) rotate(-90.245) scale(84.3622 75.3112)">
<stop stop-color="#D974DC"/>
<stop offset="1" stop-color="#572994"/>
</radialGradient>
<linearGradient id="paint1_linear" x1="9.10346" y1="85.8032" x2="42.7251" y2="85.6592" gradientUnits="userSpaceOnUse">
<stop stop-color="#481F7D"/>
<stop offset="1" stop-color="#63309A"/>
</linearGradient>
<linearGradient id="paint2_linear" x1="41.5158" y1="92.8321" x2="65.764" y2="128.418" gradientUnits="userSpaceOnUse">
<stop stop-color="#572994"/>
<stop offset="0.580392" stop-color="#8845AF"/>
<stop offset="1" stop-color="#BA62CB"/>
</linearGradient>
<linearGradient id="paint3_linear" x1="9.47167" y1="105.974" x2="68.7857" y2="105.72" gradientUnits="userSpaceOnUse">
<stop stop-color="#4F2387"/>
<stop offset="0.580392" stop-color="#6F369D"/>
<stop offset="1" stop-color="#904AB3"/>
</linearGradient>
<radialGradient id="paint4_radial" cx="0" cy="0" r="1" gradientUnits="userSpaceOnUse" gradientTransform="translate(23.345 62.3105) rotate(-46.1233) scale(65.49 63.3078)">
<stop stop-color="#2AACE0"/>
<stop offset="1" stop-color="#782AB0"/>
</radialGradient>
<linearGradient id="paint5_linear" x1="1.80215" y1="53.0048" x2="50.8108" y2="51.2221" gradientUnits="userSpaceOnUse">
<stop stop-color="#4285D2"/>
<stop offset="0.631373" stop-color="#4F88D8"/>
<stop offset="1" stop-color="#5D8CDE"/>
</linearGradient>
<linearGradient id="paint6_linear" x1="1.30458" y1="56.3275" x2="66.9337" y2="56.0434" gradientUnits="userSpaceOnUse">
<stop stop-color="#5951B9"/>
<stop offset="1" stop-color="#595CC3"/>
</linearGradient>
<linearGradient id="paint7_linear" x1="65.1266" y1="0.778386" x2="64.5794" y2="94.3579" gradientUnits="userSpaceOnUse">
<stop stop-color="#29ACE0"/>
<stop offset="1" stop-color="#964AB7"/>
</linearGradient>
<linearGradient id="paint8_linear" x1="48.4692" y1="14.3729" x2="48.8358" y2="94.0699" gradientUnits="userSpaceOnUse">
<stop stop-color="#3FA5DF"/>
<stop offset="0.431373" stop-color="#71AAF0"/>
<stop offset="1" stop-color="#8C53BB"/>
</linearGradient>
<linearGradient id="paint9_linear" x1="70.592" y1="55.1963" x2="1.32518" y2="56.3453" gradientUnits="userSpaceOnUse">
<stop stop-color="#6CAAEE"/>
<stop offset="0.701961" stop-color="#5FB3E3"/>
<stop offset="1" stop-color="#5AA8E8"/>
</linearGradient>
</defs>
</svg>
