<svg width="384" height="92" viewBox="0 0 384 92" fill="none" xmlns="http://www.w3.org/2000/svg">
<path d="M333.754 91.162C329.451 91.1539 325.969 90.5778 323.303 89.4396L324.319 79.342C326.19 80.056 328.273 80.4122 330.563 80.4165C333.341 80.4217 335.571 79.7859 337.265 78.5149C338.953 77.2439 340.799 74.9456 342.804 71.6142L329.534 33.1113L312.507 33.0793L310.246 55.4994C309.976 58.1941 310.395 60.068 311.503 61.1329C312.61 62.1977 314.521 62.7357 317.224 62.7408C319.169 62.7444 321.216 62.396 323.371 61.6895L322.378 71.5699C319.125 72.838 315.382 73.471 311.148 73.463C305.528 73.4524 301.475 71.9592 299 68.9775C296.524 65.9959 295.553 61.8133 296.098 56.4299C298.544 32.137 298.813 29.4717 300.659 11.161L315.144 6.93712L313.624 22.0248C322.551 22.0416 331.479 22.0584 340.406 22.0752L351.434 56.3227L369.248 22.1295L383.825 22.1569L359.634 68.986C355.828 76.4184 351.971 81.9717 348.063 85.6519C344.149 89.332 339.385 91.1609 333.759 91.1503L333.754 91.162ZM10.3052 0.949454L25.612 0.978269L24.4786 12.2441L9.1718 12.2153L10.3052 0.949454ZM8.31339 32.0897L0.921694 32.0758L3.24165 21.4522L23.4437 21.4903L18.3715 71.8608L4.31289 71.8343L8.31913 32.0898L8.31339 32.0897ZM34.6261 21.5113L47.6436 21.5358L47.6845 26.3214C50.0789 24.6231 52.8537 23.2308 56.0204 22.1388C59.1871 21.0467 62.4013 20.5008 65.6628 20.5069C72.1169 20.5191 76.6996 22.0661 79.411 25.1539C82.1224 28.2417 83.1413 33.082 82.4793 39.6689L79.2249 71.9753L65.1664 71.9489L68.3478 40.3881C68.6956 36.9185 68.2465 34.4867 67.0005 33.1045C65.7488 31.7222 63.3196 31.0248 59.7129 31.018C57.5615 31.014 55.3596 31.4854 53.1129 32.4383C50.8662 33.3912 48.8963 34.644 47.2149 36.2028L43.6183 71.9083L29.5597 71.8818L34.6319 21.5113L34.6261 21.5113ZM106.24 73.089C100.62 73.0784 96.567 71.5852 94.0917 68.6035C91.6165 65.6219 90.6452 61.4393 91.1895 56.0559C93.6359 31.763 93.9052 29.0977 95.7512 10.787L110.236 6.56312L108.716 21.6508L121.21 21.6743L119.265 32.7272L107.605 32.7053L105.343 55.1255C105.074 57.8201 105.493 59.694 106.6 60.7589C107.707 61.8238 109.619 62.3617 112.322 62.3668C114.266 62.3704 116.313 62.022 118.469 61.3156L117.476 71.1959C114.223 72.464 110.48 73.097 106.246 73.089L106.24 73.089ZM149.446 73.1703C140.702 73.1539 134.105 70.9278 129.653 66.4921C125.206 62.0563 123.418 55.4824 124.299 46.7645C125.129 38.5455 127.909 32.1387 132.643 27.5441C137.377 22.9496 143.836 20.6541 152.028 20.6695C159.523 20.6836 165.136 22.6965 168.863 26.7081C172.589 30.7197 174.115 36.0894 173.436 42.8172L172.516 51.9578L136.8 51.8906C137.103 55.79 138.577 58.5173 141.233 60.0842C143.889 61.6511 147.958 62.4339 153.439 62.4442C156.08 62.4492 158.794 62.2076 161.583 61.7138C164.377 61.2258 166.78 60.5903 168.803 59.8132L167.776 70.0164C162.978 72.133 156.866 73.1843 149.44 73.1703L149.446 73.1703ZM161.116 43.111L161.396 40.346C162.025 34.1113 158.692 30.9871 151.404 30.9734C146.825 30.9647 143.503 31.898 141.436 33.7731C139.376 35.6482 138.124 38.7461 137.687 43.0669L161.116 43.111ZM184.145 21.7928L197.163 21.8173L197.262 27.0258C199.703 25.5448 202.611 24.235 205.99 23.1081C209.37 21.9812 212.675 21.2065 215.907 20.7898L214.813 31.6271C211.782 32.0441 208.517 32.7661 205.016 33.7871C201.51 34.808 198.729 35.8832 196.672 37.0126L193.126 72.1898L179.067 72.1633L184.14 21.7928L184.145 21.7928ZM240.136 73.341C231.318 73.3244 224.795 71.0809 220.556 66.6103C216.322 62.1398 214.632 55.613 215.496 47.0418C216.366 38.4002 219.49 31.8707 224.863 27.4476C230.236 23.0304 237.231 20.8299 245.836 20.8461C249.305 20.8526 252.268 21.1048 254.714 21.6086C257.165 22.1064 259.509 22.927 261.755 24.0645L260.717 34.3734C257.152 32.523 252.772 31.5928 247.56 31.583C242.078 31.5727 237.882 32.7333 234.972 35.0648C232.061 37.3963 230.323 41.3976 229.756 47.0628C229.206 52.5167 230.073 56.47 232.363 58.917C234.653 61.364 238.642 62.5928 244.331 62.6035C249.468 62.6132 254.113 61.6296 258.273 59.6528L257.201 70.2787C252.346 72.3247 246.654 73.3416 240.125 73.3293L240.136 73.341ZM275.917 1.44947L291.224 1.47828L290.091 12.7441L274.784 12.7153L275.917 1.44947ZM273.925 32.5898L266.534 32.5758L268.854 21.9522L289.056 21.9903L283.983 72.3608L269.925 72.3343L273.931 32.5898L273.925 32.5898Z" fill="#111029"/>
</svg>
